<?xml version="1.0" encoding="UTF-8" standalone="no"?>
<!DOCTYPE svg PUBLIC "-//W3C//DTD SVG 1.1//EN"
 "http://www.w3.org/Graphics/SVG/1.1/DTD/svg11.dtd">
<!-- Generated by graphviz version 2.40.1 (20161225.0304)
 -->
<!-- Title: dependencies Pages: 1 -->
<svg width="645pt" height="284pt"
 viewBox="0.00 0.00 645.00 284.00" xmlns="http://www.w3.org/2000/svg" xmlns:xlink="http://www.w3.org/1999/xlink">
<g id="graph0" class="graph" transform="scale(1 1) rotate(0) translate(4 280)">
<title>dependencies</title>
<polygon fill="#ffffff" stroke="transparent" points="-4,4 -4,-280 641,-280 641,4 -4,4"/>
<text text-anchor="start" x="297.5091" y="-42.4" font-family="sans-serif" font-weight="bold" font-size="14.00" fill="#000000">Legend</text>
<polygon fill="#ffffb3" stroke="transparent" points="84.5,-10 84.5,-30 104.5,-30 104.5,-10 84.5,-10"/>
<text text-anchor="start" x="108.129" y="-15.4" font-family="sans-serif" font-size="14.00" fill="#000000"> &#160;Declarations</text>
<polygon fill="#8dd3c7" stroke="transparent" points="197.5,-10 197.5,-30 217.5,-30 217.5,-10 197.5,-10"/>
<text text-anchor="start" x="221.2251" y="-15.4" font-family="sans-serif" font-size="14.00" fill="#000000"> &#160;Module</text>
<polygon fill="#80b1d3" stroke="transparent" points="283.5,-10 283.5,-30 303.5,-30 303.5,-10 283.5,-10"/>
<text text-anchor="start" x="307.2812" y="-15.4" font-family="sans-serif" font-size="14.00" fill="#000000"> &#160;Bootstrap</text>
<polygon fill="#fdb462" stroke="transparent" points="380.5,-10 380.5,-30 400.5,-30 400.5,-10 380.5,-10"/>
<text text-anchor="start" x="404.1732" y="-15.4" font-family="sans-serif" font-size="14.00" fill="#000000"> &#160;Providers</text>
<polygon fill="#fb8072" stroke="transparent" points="476.5,-10 476.5,-30 496.5,-30 496.5,-10 476.5,-10"/>
<text text-anchor="start" x="500.2258" y="-15.4" font-family="sans-serif" font-size="14.00" fill="#000000"> &#160;Exports</text>
<g id="clust1" class="cluster">
<title>cluster_AppModule</title>
<polygon fill="none" stroke="#000000" stroke-dasharray="1,5" points="8,-70 8,-268 629,-268 629,-70 8,-70"/>
</g>
<g id="clust2" class="cluster">
<title>cluster_AppModule_declarations</title>
<polygon fill="none" stroke="#000000" points="324,-78 324,-130 621,-130 621,-78 324,-78"/>
</g>
<g id="clust5" class="cluster">
<title>cluster_AppModule_imports</title>
<polygon fill="none" stroke="#000000" points="172,-78 172,-130 316,-130 316,-78 172,-78"/>
</g>
<g id="clust7" class="cluster">
<title>cluster_AppModule_bootstrap</title>
<polygon fill="none" stroke="#000000" points="265,-208 265,-260 389,-260 389,-208 265,-208"/>
</g>
<g id="clust8" class="cluster">
<title>cluster_AppModule_providers</title>
<polygon fill="none" stroke="#000000" points="16,-78 16,-130 164,-130 164,-78 16,-78"/>
</g>
<!-- AppComponent -->
<g id="node1" class="node">
<title>AppComponent</title>
<polygon fill="#ffffb3" stroke="#000000" points="612.9399,-122 507.0601,-122 507.0601,-86 612.9399,-86 612.9399,-122"/>
<text text-anchor="middle" x="560" y="-99.8" font-family="Times,serif" font-size="14.00" fill="#000000">AppComponent</text>
</g>
<!-- AppModule -->
<g id="node3" class="node">
<title>AppModule</title>
<polygon fill="#8dd3c7" stroke="#000000" points="368.6571,-187 365.6571,-191 344.6571,-191 341.6571,-187 285.3429,-187 285.3429,-151 368.6571,-151 368.6571,-187"/>
<text text-anchor="middle" x="327" y="-164.8" font-family="Times,serif" font-size="14.00" fill="#000000">AppModule</text>
</g>
<!-- AppComponent&#45;&gt;AppModule -->
<g id="edge1" class="edge">
<title>AppComponent&#45;&gt;AppModule</title>
<path fill="none" stroke="#000000" d="M560,-122.1061C560,-141.3391 560,-169 560,-169 560,-169 378.9248,-169 378.9248,-169"/>
<polygon fill="#000000" stroke="#000000" points="378.9249,-165.5001 368.9248,-169 378.9248,-172.5001 378.9249,-165.5001"/>
</g>
<!-- PeopleSearchComponent -->
<g id="node2" class="node">
<title>PeopleSearchComponent</title>
<polygon fill="#ffffb3" stroke="#000000" points="489.5225,-122 332.4775,-122 332.4775,-86 489.5225,-86 489.5225,-122"/>
<text text-anchor="middle" x="411" y="-99.8" font-family="Times,serif" font-size="14.00" fill="#000000">PeopleSearchComponent</text>
</g>
<!-- PeopleSearchComponent&#45;&gt;AppModule -->
<g id="edge2" class="edge">
<title>PeopleSearchComponent&#45;&gt;AppModule</title>
<path fill="none" stroke="#000000" d="M350.5336,-122.1061C350.5336,-122.1061 350.5336,-140.991 350.5336,-140.991"/>
<polygon fill="#000000" stroke="#000000" points="347.0337,-140.9909 350.5336,-150.991 354.0337,-140.991 347.0337,-140.9909"/>
</g>
<!-- AppComponent  -->
<g id="node5" class="node">
<title>AppComponent </title>
<polygon fill="#80b1d3" stroke="#000000" points="381.439,-252 272.561,-252 272.561,-216 381.439,-216 381.439,-252"/>
<text text-anchor="middle" x="327" y="-229.8" font-family="Times,serif" font-size="14.00" fill="#000000">AppComponent </text>
</g>
<!-- AppModule&#45;&gt;AppComponent  -->
<g id="edge4" class="edge">
<title>AppModule&#45;&gt;AppComponent </title>
<path fill="none" stroke="#000000" stroke-dasharray="1,5" d="M327,-187.1061C327,-187.1061 327,-205.991 327,-205.991"/>
<polygon fill="#000000" stroke="#000000" points="323.5001,-205.9909 327,-215.991 330.5001,-205.991 323.5001,-205.9909"/>
</g>
<!-- AppRoutingModule -->
<g id="node4" class="node">
<title>AppRoutingModule</title>
<polygon fill="#8dd3c7" stroke="#000000" points="308.2744,-122 305.2744,-126 284.2744,-126 281.2744,-122 179.7256,-122 179.7256,-86 308.2744,-86 308.2744,-122"/>
<text text-anchor="middle" x="244" y="-99.8" font-family="Times,serif" font-size="14.00" fill="#000000">AppRoutingModule</text>
</g>
<!-- AppRoutingModule&#45;&gt;AppModule -->
<g id="edge3" class="edge">
<title>AppRoutingModule&#45;&gt;AppModule</title>
<path fill="none" stroke="#000000" d="M296.7795,-122.1061C296.7795,-122.1061 296.7795,-140.991 296.7795,-140.991"/>
<polygon fill="#000000" stroke="#000000" points="293.2795,-140.9909 296.7795,-150.991 300.2795,-140.991 293.2795,-140.9909"/>
</g>
<!-- PeopleService -->
<g id="node6" class="node">
<title>PeopleService</title>
<ellipse fill="#fdb462" stroke="#000000" cx="90" cy="-104" rx="66.0492" ry="18"/>
<text text-anchor="middle" x="90" y="-99.8" font-family="Times,serif" font-size="14.00" fill="#000000">PeopleService</text>
</g>
<!-- PeopleService&#45;&gt;AppModule -->
<g id="edge5" class="edge">
<title>PeopleService&#45;&gt;AppModule</title>
<path fill="none" stroke="#000000" d="M90,-122.1061C90,-141.3391 90,-169 90,-169 90,-169 275.1747,-169 275.1747,-169"/>
<polygon fill="#000000" stroke="#000000" points="275.1747,-172.5001 285.1747,-169 275.1747,-165.5001 275.1747,-172.5001"/>
</g>
</g>
</svg>
